{"title":"Ocean.Odyssey.2010.720p.BRrip.XviD.AC3 - CODY","uid":6191755,"size":1556186883,"categoryP":"video","categoryS":"hd___movies","magnet":"?xt=urn:btih:3e9bbb62fb295d83e5cc4d7dce7ec329fd908ffc&amp;dn=Ocean.Odyssey.2010.720p.BRrip.XviD.AC3+-+CODY&amp;tr=udp%3A%2F%2Ftracker.openbittorrent.com%3A80&amp;tr=udp%3A%2F%2Fopen.demonii.com%3A1337&amp;tr=udp%3A%2F%2Ftracker.coppersurfer.tk%3A6969&amp;tr=udp%3A%2F%2Fexodus.desync.com%3A6969","seeders":0,"leechers":1,"uploader":"CODYBOSS1969","files":6,"time":1298314607,"description":"General\nComplete name                    : Ocean.Odyssey.2010.720p.BRrip.XviD.AC3 - CODY.avi\nFormat                           : AVI\nFormat/Info                      : Audio Video Interleave\nFile size                        : 1.45 GiB\nDuration                         : 1h 0mn\nOverall bit rate                 : 3 457 Kbps\nWriting application              : VirtualDubMod 1.5.10.2 (build 2540/release)\nWriting library                  : VirtualDubMod build 2540/release\n\nVideo\nID                               : 0\nFormat                           : MPEG-4 Visual\nFormat profile                   : Advanced Simple@L5\nFormat settings, BVOP            : Yes\nFormat settings, QPel            : No\nFormat settings, GMC             : No warppoints\nFormat settings, Matrix          : Default (H.263)\nCodec ID                         : XVID\nCodec ID/Hint                    : XviD\nDuration                         : 1h 0mn\nBit rate                         : 2 998 Kbps\nWidth                            : 1 280 pixels\nHeight                           : 720 pixels\nDisplay aspect ratio             : 16:9\nFrame rate                       : 29.970 fps\nColor space                      : YUV\nChroma subsampling               : 4:2:0\nBit depth                        : 8 bits\nScan type                        : Progressive\nCompression mode                 : Lossy\nBits/(Pixel*Frame)               : 0.109\nStream size                      : 1.26 GiB (87%)\nWriting library                  : XviD 1.2.0.dev47 (UTC 2006-11-01)\n\nAudio\nID                               : 1\nFormat                           : AC-3\nFormat/Info                      : Audio Coding 3\nMode extension                   : CM (complete main)\nCodec ID                         : 2000\nDuration                         : 1h 0mn\nBit rate mode                    : Constant\nBit rate                         : 448 Kbps\nChannel(s)                       : 6 channels\nChannel positions                : Front: L C R, Side: L R, LFE\nSampling rate                    : 48.0 KHz\nBit depth                        : 16 bits\nCompression mode                 : Lossy\nStream size                      : 192 MiB (13%)\nAlignment                        : Aligned on interleaves\nInterleave, duration             : 64 ms (1.92 video frames)\nInterleave, preload duration     : 192 ms\nLanguage                         : English\n\n\n\n\nINFO link:                       &lt;a href=&quot; http://www.amazon.com/Ocean-Odyssey-Blu-ray-Kaura-Vagnone/dp/B003WKQ47I&quot; rel=&quot;nofollow&quot; target=&quot;_NEW&quot;&gt; http://www.amazon.com/Ocean-Odyssey-Blu-ray-Kaura-Vagnone/dp/B003WKQ47I&lt;/a&gt;\n\n\n\nSubtitles included               : English [SubRip extracted and original VobSub]\n","torrent":{"xt":"urn:btih:3e9bbb62fb295d83e5cc4d7dce7ec329fd908ffc","amp;dn":"Ocean.Odyssey.2010.720p.BRrip.XviD.AC3+-+CODY","amp;tr":["udp%3A%2F%2Ftracker.openbittorrent.com%3A80","udp%3A%2F%2Fopen.demonii.com%3A1337","udp%3A%2F%2Ftracker.coppersurfer.tk%3A6969","udp%3A%2F%2Fexodus.desync.com%3A6969"],"infoHash":"3e9bbb62fb295d83e5cc4d7dce7ec329fd908ffc","infoHashBuffer":{"type":"Buffer","data":[62,155,187,98,251,41,93,131,229,204,77,125,206,126,195,41,253,144,143,252]},"announce":[],"urlList":[]}}